M48
;Layer_Color=9474304
;FILE_FORMAT=4:4
METRIC,LZ
;TYPE=PLATED
T1F00S00C0.8000
T2F00S00C0.8500
T3F00S00C1.0200
T4F00S00C1.3200
%
T01
X0119848Y0068453
X0114848Y0068453
X0112141Y0072133
X0112141Y0077133
X0042926Y0078145
X0049911Y0069048
X0049911Y0064048
X0050546Y0057714
X0050546Y0052714
X0050332Y0045339
X0055332Y0045339
X0058039Y00864
X0058039Y00914
X007239Y009144
X007239Y008644
X0042926Y0083145
X0087503Y0086146
X0087503Y0091146
T02
X0101727Y0045593
X0109347
X0109474Y0051689
X0117094
X0112776Y0057277
X0105156
X0101092
Y0064897
X0092456Y0073279
X0084836
X0077978Y0073406
X0070358
X0055245Y0073787
Y0066167
X0043434Y004826
Y004576
T03
X0080264Y0044577
X0082804
X0085344
X0087884
X0090424
X0092964
X0095504
Y0066548
X0092964
X0090424
X0087884
X0085344
X0082804
X0080264
X0077724
X0075184
X0072644
X0070104
X0067564
X0065024
X0062484
X0059944
Y0044577
X0062484
X0065024
X0067564
X0070104
X0072644
X0075184
X0077724
T04
X0043434Y005875
Y00613
Y006385
M30
