G04*
G04 #@! TF.GenerationSoftware,Altium Limited,Altium Designer,21.4.1 (30)*
G04*
G04 Layer_Color=2752767*
%FSLAX44Y44*%
%MOMM*%
G71*
G04*
G04 #@! TF.SameCoordinates,70A570FA-FAE6-4AEE-A749-F6A98553B2A2*
G04*
G04*
G04 #@! TF.FilePolarity,Positive*
G04*
G01*
G75*
%ADD35C,0.0508*%
%ADD36C,0.0677*%
D35*
X1091438Y453898D02*
Y457962D01*
X1095502D01*
Y453898D01*
X1091438D01*
X1015238D02*
Y457962D01*
X1019302D01*
Y453898D01*
X1015238D01*
X1168908Y514858D02*
Y518922D01*
X1172972D01*
Y514858D01*
X1168908D01*
X1092708D02*
Y518922D01*
X1096772D01*
Y514858D01*
X1092708D01*
X701548Y732028D02*
Y736092D01*
X705612D01*
Y732028D01*
X701548D01*
X777748D02*
Y736092D01*
X781812D01*
Y732028D01*
X777748D01*
X955040Y663448D02*
X953008Y667512D01*
X957072D01*
X955040Y663448D01*
X929640D02*
X927608Y667512D01*
X931672D01*
X929640Y663448D01*
X904240D02*
X902208Y667512D01*
X906272D01*
X904240Y663448D01*
X878840D02*
X876808Y667512D01*
X880872D01*
X878840Y663448D01*
X853440D02*
X851408Y667512D01*
X855472D01*
X853440Y663448D01*
X828040D02*
X826008Y667512D01*
X830072D01*
X828040Y663448D01*
X802640D02*
X800608Y667512D01*
X804672D01*
X802640Y663448D01*
X777240D02*
X775208Y667512D01*
X779272D01*
X777240Y663448D01*
X751840D02*
X749808Y667512D01*
X753872D01*
X751840Y663448D01*
X726440D02*
X724408Y667512D01*
X728472D01*
X726440Y663448D01*
X701040D02*
X699008Y667512D01*
X703072D01*
X701040Y663448D01*
X675640D02*
X673608Y667512D01*
X677672D01*
X675640Y663448D01*
X650240D02*
X648208Y667512D01*
X652272D01*
X650240Y663448D01*
X624840D02*
X622808Y667512D01*
X626872D01*
X624840Y663448D01*
X599440D02*
X597408Y667512D01*
X601472D01*
X599440Y663448D01*
X955040Y443738D02*
X953008Y447802D01*
X957072D01*
X955040Y443738D01*
X929640D02*
X927608Y447802D01*
X931672D01*
X929640Y443738D01*
X904240D02*
X902208Y447802D01*
X906272D01*
X904240Y443738D01*
X878840D02*
X876808Y447802D01*
X880872D01*
X878840Y443738D01*
X853440D02*
X851408Y447802D01*
X855472D01*
X853440Y443738D01*
X828040D02*
X826008Y447802D01*
X830072D01*
X828040Y443738D01*
X802640D02*
X800608Y447802D01*
X804672D01*
X802640Y443738D01*
X777240D02*
X775208Y447802D01*
X779272D01*
X777240Y443738D01*
X751840D02*
X749808Y447802D01*
X753872D01*
X751840Y443738D01*
X726440D02*
X724408Y447802D01*
X728472D01*
X726440Y443738D01*
X701040D02*
X699008Y447802D01*
X703072D01*
X701040Y443738D01*
X675640D02*
X673608Y447802D01*
X677672D01*
X675640Y443738D01*
X650240D02*
X648208Y447802D01*
X652272D01*
X650240Y443738D01*
X624840D02*
X622808Y447802D01*
X626872D01*
X624840Y443738D01*
X599440D02*
X597408Y447802D01*
X601472D01*
X599440Y443738D01*
X1008888Y570738D02*
Y574802D01*
X1012952D01*
Y570738D01*
X1008888D01*
Y646938D02*
Y651002D01*
X1012952D01*
Y646938D01*
X1008888D01*
X1125728Y570738D02*
Y574802D01*
X1129792D01*
Y570738D01*
X1125728D01*
X1049528D02*
Y574802D01*
X1053592D01*
Y570738D01*
X1049528D01*
X434340Y585468D02*
X435356Y586484D01*
X436372D01*
X435356Y587500D01*
X436372Y588516D01*
X435356D01*
X434340Y589532D01*
X433324Y588516D01*
X432308D01*
X433324Y587500D01*
X432308Y586484D01*
X433324D01*
X434340Y585468D01*
Y610968D02*
X435356Y611984D01*
X436372D01*
X435356Y613000D01*
X436372Y614016D01*
X435356D01*
X434340Y615032D01*
X433324Y614016D01*
X432308D01*
X433324Y613000D01*
X432308Y611984D01*
X433324D01*
X434340Y610968D01*
Y636468D02*
X435356Y637484D01*
X436372D01*
X435356Y638500D01*
X436372Y639516D01*
X435356D01*
X434340Y640532D01*
X433324Y639516D01*
X432308D01*
X433324Y638500D01*
X432308Y637484D01*
X433324D01*
X434340Y636468D01*
X432308Y480568D02*
Y484632D01*
X436372D01*
Y480568D01*
X432308D01*
Y455568D02*
Y459632D01*
X436372D01*
Y455568D01*
X432308D01*
X922528Y730758D02*
Y734822D01*
X926592D01*
Y730758D01*
X922528D01*
X846328D02*
Y734822D01*
X850392D01*
Y730758D01*
X846328D01*
X550418Y659638D02*
Y663702D01*
X554482D01*
Y659638D01*
X550418D01*
Y735838D02*
Y739902D01*
X554482D01*
Y735838D01*
X550418D01*
D36*
X507492Y577140D02*
G03*
X507492Y577140I-2032J0D01*
G01*
X507492Y527140D02*
G03*
X507492Y527140I-2032J0D01*
G01*
X501142Y640480D02*
G03*
X501142Y640480I-2032J0D01*
G01*
X501142Y690480D02*
G03*
X501142Y690480I-2032J0D01*
G01*
X1200512Y684530D02*
G03*
X1200512Y684530I-2032J0D01*
G01*
X1150512Y684530D02*
G03*
X1150512Y684530I-2032J0D01*
G01*
X505352Y453390D02*
G03*
X505352Y453390I-2032J0D01*
G01*
X555352Y453390D02*
G03*
X555352Y453390I-2032J0D01*
G01*
X1123442Y771330D02*
G03*
X1123442Y771330I-2032J0D01*
G01*
X1123442Y721330D02*
G03*
X1123442Y721330I-2032J0D01*
G01*
X877062Y911460D02*
G03*
X877062Y911460I-2032J0D01*
G01*
X877062Y861460D02*
G03*
X877062Y861460I-2032J0D01*
G01*
X725932Y914400D02*
G03*
X725932Y914400I-2032J0D01*
G01*
X725932Y864400D02*
G03*
X725932Y864400I-2032J0D01*
G01*
X431292Y831450D02*
G03*
X431292Y831450I-2032J0D01*
G01*
X431292Y781450D02*
G03*
X431292Y781450I-2032J0D01*
G01*
X582422Y914000D02*
G03*
X582422Y914000I-2032J0D01*
G01*
X582422Y864000D02*
G03*
X582422Y864000I-2032J0D01*
G01*
M02*
