G04*
G04 #@! TF.GenerationSoftware,Altium Limited,Altium Designer,21.4.1 (30)*
G04*
G04 Layer_Color=128*
%FSLAX44Y44*%
%MOMM*%
G71*
G04*
G04 #@! TF.SameCoordinates,70A570FA-FAE6-4AEE-A749-F6A98553B2A2*
G04*
G04*
G04 #@! TF.FilePolarity,Positive*
G04*
G01*
G75*
%ADD35C,0.0508*%
D35*
X1089220Y455930D02*
X1097720D01*
X1093470Y451680D02*
Y460180D01*
X1013020Y455930D02*
X1021520D01*
X1017270Y451680D02*
Y460180D01*
X1166690Y516890D02*
X1175190D01*
X1170940Y512640D02*
Y521140D01*
X1090490Y516890D02*
X1098990D01*
X1094740Y512640D02*
Y521140D01*
X699330Y734060D02*
X707830D01*
X703580Y729810D02*
Y738310D01*
X775530Y734060D02*
X784030D01*
X779780Y729810D02*
Y738310D01*
X501460Y577140D02*
X509460D01*
X505460Y573140D02*
Y581140D01*
X501460Y527140D02*
X509460D01*
X505460Y523140D02*
Y531140D01*
X495110Y640480D02*
X503110D01*
X499110Y636480D02*
Y644480D01*
X495110Y690480D02*
X503110D01*
X499110Y686480D02*
Y694480D01*
X949940Y665480D02*
X960140D01*
X955040Y660380D02*
Y670580D01*
X924540Y665480D02*
X934740D01*
X929640Y660380D02*
Y670580D01*
X899140Y665480D02*
X909340D01*
X904240Y660380D02*
Y670580D01*
X873740Y665480D02*
X883940D01*
X878840Y660380D02*
Y670580D01*
X848340Y665480D02*
X858540D01*
X853440Y660380D02*
Y670580D01*
X822940Y665480D02*
X833140D01*
X828040Y660380D02*
Y670580D01*
X797540Y665480D02*
X807740D01*
X802640Y660380D02*
Y670580D01*
X772140Y665480D02*
X782340D01*
X777240Y660380D02*
Y670580D01*
X746740Y665480D02*
X756940D01*
X751840Y660380D02*
Y670580D01*
X721340Y665480D02*
X731540D01*
X726440Y660380D02*
Y670580D01*
X695940Y665480D02*
X706140D01*
X701040Y660380D02*
Y670580D01*
X670540Y665480D02*
X680740D01*
X675640Y660380D02*
Y670580D01*
X645140Y665480D02*
X655340D01*
X650240Y660380D02*
Y670580D01*
X619740Y665480D02*
X629940D01*
X624840Y660380D02*
Y670580D01*
X594340Y665480D02*
X604540D01*
X599440Y660380D02*
Y670580D01*
X949940Y445770D02*
X960140D01*
X955040Y440670D02*
Y450870D01*
X924540Y445770D02*
X934740D01*
X929640Y440670D02*
Y450870D01*
X899140Y445770D02*
X909340D01*
X904240Y440670D02*
Y450870D01*
X873740Y445770D02*
X883940D01*
X878840Y440670D02*
Y450870D01*
X848340Y445770D02*
X858540D01*
X853440Y440670D02*
Y450870D01*
X822940Y445770D02*
X833140D01*
X828040Y440670D02*
Y450870D01*
X797540Y445770D02*
X807740D01*
X802640Y440670D02*
Y450870D01*
X772140Y445770D02*
X782340D01*
X777240Y440670D02*
Y450870D01*
X746740Y445770D02*
X756940D01*
X751840Y440670D02*
Y450870D01*
X721340Y445770D02*
X731540D01*
X726440Y440670D02*
Y450870D01*
X695940Y445770D02*
X706140D01*
X701040Y440670D02*
Y450870D01*
X670540Y445770D02*
X680740D01*
X675640Y440670D02*
Y450870D01*
X645140Y445770D02*
X655340D01*
X650240Y440670D02*
Y450870D01*
X619740Y445770D02*
X629940D01*
X624840Y440670D02*
Y450870D01*
X594340Y445770D02*
X604540D01*
X599440Y440670D02*
Y450870D01*
X1006670Y572770D02*
X1015170D01*
X1010920Y568520D02*
Y577020D01*
X1006670Y648970D02*
X1015170D01*
X1010920Y644720D02*
Y653220D01*
X1194480Y684530D02*
X1202480D01*
X1198480Y680530D02*
Y688530D01*
X1144480Y684530D02*
X1152480D01*
X1148480Y680530D02*
Y688530D01*
X499320Y453390D02*
X507320D01*
X503320Y449390D02*
Y457390D01*
X549320Y453390D02*
X557320D01*
X553320Y449390D02*
Y457390D01*
X1123510Y572770D02*
X1132010D01*
X1127760Y568520D02*
Y577020D01*
X1047310Y572770D02*
X1055810D01*
X1051560Y568520D02*
Y577020D01*
X427740Y587500D02*
X440940D01*
X434340Y580900D02*
Y594100D01*
X427740Y613000D02*
X440940D01*
X434340Y606400D02*
Y619600D01*
X427740Y638500D02*
X440940D01*
X434340Y631900D02*
Y645100D01*
X430090Y482600D02*
X438590D01*
X434340Y478350D02*
Y486850D01*
X430090Y457600D02*
X438590D01*
X434340Y453350D02*
Y461850D01*
X1117410Y771330D02*
X1125410D01*
X1121410Y767330D02*
Y775330D01*
X1117410Y721330D02*
X1125410D01*
X1121410Y717330D02*
Y725330D01*
X871030Y911460D02*
X879030D01*
X875030Y907460D02*
Y915460D01*
X871030Y861460D02*
X879030D01*
X875030Y857460D02*
Y865460D01*
X719900Y914400D02*
X727900D01*
X723900Y910400D02*
Y918400D01*
X719900Y864400D02*
X727900D01*
X723900Y860400D02*
Y868400D01*
X425260Y831450D02*
X433260D01*
X429260Y827450D02*
Y835450D01*
X425260Y781450D02*
X433260D01*
X429260Y777450D02*
Y785450D01*
X576390Y914000D02*
X584390D01*
X580390Y910000D02*
Y918000D01*
X576390Y864000D02*
X584390D01*
X580390Y860000D02*
Y868000D01*
X920310Y732790D02*
X928810D01*
X924560Y728540D02*
Y737040D01*
X844110Y732790D02*
X852610D01*
X848360Y728540D02*
Y737040D01*
X548200Y661670D02*
X556700D01*
X552450Y657420D02*
Y665920D01*
X548200Y737870D02*
X556700D01*
X552450Y733620D02*
Y742120D01*
M02*
